<svg aria-hidden="true" style="position: absolute; width: 0; height: 0; overflow: hidden;" version="1.1" xmlns="http://www.w3.org/2000/svg" xmlns:xlink="http://www.w3.org/1999/xlink">
<defs>
<symbol id="icon-eye-open" viewBox="0 0 32 32">
<title>eye-open</title>
<path d="M31.643 14.768c-1.667-2.726-3.908-4.917-6.724-6.571s-5.789-2.482-8.92-2.482-6.104 0.827-8.92 2.482c-2.816 1.655-5.057 3.845-6.723 6.571-0.238 0.417-0.357 0.827-0.357 1.232s0.119 0.816 0.357 1.232c1.667 2.726 3.908 4.917 6.723 6.571s5.789 2.482 8.92 2.482c3.131 0 6.104-0.824 8.92-2.473s5.057-3.842 6.724-6.58c0.238-0.416 0.357-0.827 0.357-1.232s-0.119-0.816-0.357-1.232zM12.169 9.884c1.065-1.065 2.342-1.598 3.83-1.598 0.238 0 0.441 0.084 0.607 0.25s0.25 0.369 0.25 0.607c0 0.238-0.084 0.441-0.25 0.607s-0.369 0.25-0.607 0.25c-1.024 0-1.899 0.363-2.625 1.089s-1.089 1.601-1.089 2.625c0 0.238-0.084 0.441-0.25 0.607s-0.369 0.25-0.607 0.25c-0.238 0-0.441-0.083-0.607-0.25s-0.25-0.369-0.25-0.607c0-1.488 0.533-2.765 1.598-3.83zM23.759 21.831c-2.387 1.446-4.973 2.17-7.759 2.17s-5.372-0.723-7.759-2.17-4.372-3.39-5.955-5.831c1.809-2.81 4.077-4.911 6.804-6.304-0.726 1.238-1.089 2.577-1.089 4.018 0 2.203 0.783 4.086 2.348 5.652s3.449 2.348 5.652 2.348c2.203 0 4.086-0.783 5.652-2.348s2.348-3.449 2.348-5.652c0-1.44-0.363-2.78-1.090-4.018 2.726 1.393 4.994 3.494 6.803 6.304-1.583 2.441-3.568 4.384-5.955 5.831z"></path>
</symbol>
<symbol id="icon-github-logo" viewBox="0 0 32 32">
<title>github-logo</title>
<path d="M29.854 8.36c-1.431-2.451-3.372-4.392-5.823-5.823s-5.128-2.146-8.031-2.146c-2.903 0-5.58 0.715-8.031 2.146s-4.392 3.371-5.823 5.823c-1.431 2.451-2.146 5.128-2.146 8.031 0 3.486 1.017 6.622 3.052 9.406s4.663 4.712 7.885 5.781c0.375 0.070 0.653 0.021 0.833-0.146s0.271-0.375 0.271-0.625c0-0.042-0.004-0.416-0.011-1.125-0.006-0.544-0.010-1.195-0.011-1.847v-0.007l-0.479 0.083c-0.306 0.056-0.691 0.080-1.156 0.073s-0.948-0.055-1.448-0.146c-0.5-0.090-0.965-0.298-1.396-0.625s-0.736-0.754-0.916-1.281l-0.208-0.479c-0.139-0.319-0.357-0.674-0.656-1.062s-0.601-0.653-0.906-0.792l-0.146-0.104c-0.097-0.069-0.187-0.153-0.271-0.25s-0.146-0.194-0.187-0.292c-0.042-0.097-0.007-0.177 0.104-0.24s0.312-0.093 0.604-0.093l0.417 0.062c0.278 0.056 0.621 0.222 1.031 0.5s0.746 0.639 1.010 1.083c0.32 0.57 0.705 1.004 1.156 1.302s0.906 0.448 1.364 0.448 0.854-0.035 1.188-0.104c0.333-0.069 0.646-0.174 0.937-0.313 0.125-0.931 0.465-1.646 1.021-2.146-0.792-0.083-1.503-0.208-2.135-0.375s-1.285-0.438-1.958-0.813c-0.674-0.375-1.233-0.84-1.677-1.396s-0.809-1.285-1.094-2.188c-0.285-0.903-0.427-1.944-0.427-3.125 0-1.681 0.549-3.111 1.646-4.292-0.514-1.264-0.465-2.68 0.146-4.25 0.403-0.125 1-0.031 1.792 0.281s1.371 0.58 1.74 0.802c0.368 0.222 0.663 0.41 0.885 0.562 1.292-0.361 2.625-0.541 4-0.541s2.708 0.181 4 0.541l0.792-0.5c0.541-0.333 1.181-0.639 1.916-0.917s1.299-0.354 1.688-0.229c0.625 1.569 0.68 2.986 0.166 4.25 1.097 1.181 1.646 2.611 1.646 4.292 0 1.18-0.143 2.225-0.427 3.135s-0.652 1.639-1.104 2.188c-0.452 0.549-1.014 1.011-1.688 1.385s-1.327 0.646-1.958 0.813c-0.632 0.167-1.344 0.292-2.135 0.375 0.722 0.625 1.083 1.611 1.083 2.958v4.395c0 0.25 0.087 0.458 0.261 0.625s0.448 0.215 0.823 0.146c3.223-1.069 5.851-2.996 7.886-5.781s3.052-5.92 3.052-9.406c-0.001-2.902-0.716-5.579-2.146-8.030z"></path>
</symbol>
<symbol id="icon-speech-bubbles-comment-option" viewBox="0 0 32 32">
<title>speech-bubbles-comment-option</title>
<path d="M18.884 20.49c1.934-0.815 3.461-1.925 4.58-3.33s1.678-2.934 1.678-4.589c0-1.655-0.559-3.185-1.679-4.589s-2.646-2.515-4.58-3.33c-1.935-0.816-4.039-1.223-6.313-1.223s-4.378 0.408-6.313 1.223c-1.934 0.816-3.461 1.926-4.58 3.33s-1.679 2.935-1.679 4.589c0 1.417 0.423 2.75 1.268 4s2.006 2.303 3.482 3.16c-0.119 0.286-0.241 0.548-0.366 0.786-0.139 0.262-0.287 0.487-0.454 0.697l0.007-0.009c-0.034 0.038-0.165 0.206-0.296 0.376l-0.106 0.142c-0.095 0.125-0.25 0.301-0.464 0.527s-0.351 0.375-0.411 0.446c0-0.012-0.024 0.015-0.071 0.081s-0.075 0.095-0.080 0.090c-0.006-0.006-0.030 0.023-0.071 0.089l-0.063 0.098-0.045 0.089c-0.016 0.031-0.028 0.067-0.035 0.105l-0 0.002c-0.006 0.035-0.009 0.074-0.009 0.116s0.006 0.080 0.018 0.116c0.024 0.155 0.092 0.279 0.205 0.375s0.235 0.143 0.366 0.143h0.054c0.595-0.083 1.107-0.178 1.536-0.286 1.833-0.476 3.488-1.238 4.964-2.286 1.071 0.191 2.119 0.286 3.143 0.286 2.274 0.001 4.378-0.407 6.313-1.222z"></path>
<path d="M30.732 21.151c0.846-1.244 1.268-2.58 1.268-4.009 0-1.464-0.447-2.834-1.339-4.108s-2.107-2.333-3.643-3.178c0.274 0.893 0.41 1.797 0.41 2.714 0 1.595-0.398 3.107-1.196 4.536s-1.94 2.69-3.428 3.786c-1.381 1-2.952 1.768-4.715 2.303s-3.601 0.804-5.518 0.804c-0.357 0-0.881-0.024-1.571-0.071 2.393 1.571 5.202 2.357 8.428 2.357 1.024 0 2.071-0.095 3.143-0.286 1.476 1.048 3.131 1.809 4.964 2.286 0.429 0.107 0.941 0.202 1.536 0.286 0.143 0.012 0.274-0.030 0.393-0.125s0.197-0.226 0.232-0.392c-0.006-0.072 0-0.111 0.018-0.116s0.015-0.045-0.009-0.116c-0.024-0.072-0.036-0.107-0.036-0.107l-0.045-0.089c-0.021-0.038-0.041-0.070-0.064-0.1l0.002 0.002c-0.030-0.041-0.053-0.072-0.072-0.089s-0.044-0.048-0.080-0.089c-0.036-0.041-0.059-0.068-0.072-0.080-0.059-0.072-0.196-0.22-0.411-0.447s-0.369-0.402-0.464-0.526c-0.224-0.296-0.356-0.464-0.489-0.632l0.087 0.114c-0.159-0.201-0.307-0.426-0.435-0.663l-0.012-0.024c-0.125-0.238-0.247-0.5-0.366-0.786 1.476-0.858 2.637-1.908 3.482-3.153z"></path>
</symbol>
</defs>
</svg>
